<?xml version="1.0" encoding="UTF-8"?>
<svg id="a" data-name="Layer 1" xmlns="http://www.w3.org/2000/svg" viewBox="0 0 2694.151 2915.7515">
  <path d="M1772.2551,566.9052c-73.6359-35.5028-162.5533-81.974-238.8204-98.9933-2.7393-62.4966-23.287-143.6465-49.4128-188.6671,168.5336,13.8133,320.4442,72.412,465.6913,148.0041-62.6436,45.7853-122.5018,92.1824-177.4581,139.6563Z" fill="#010101" stroke="#010101" stroke-miterlimit="10" stroke-width="13" stroke-linejoin="round"/>
  <path d="M2448.4857,873.5189l-267.762,16.8007c-9.4205-10.7558-176.1494-191.8079-301.3637-260.4116l185.8585-131.256c184.3886,125.6416,309.6747,250.5673,383.2672,374.8669Z" fill="#010101" stroke="#010101" stroke-miterlimit="10" stroke-width="13" stroke-linejoin="round"/>
  <path d="M2680.5459,1523.4981l-253.0612-118.6553c-26.1589-131.8389-85.6188-265.7614-168.0074-401.1181l255.1612-14.7007c94.959,152.4048,141.8853,336.0023,165.9074,534.4741Z" fill="#010101" stroke="#010101" stroke-miterlimit="10" stroke-width="13" stroke-linejoin="round"/>
  <path d="M2626.9938,2120.975c-55.2929-63.8034-108.2252-120.8393-156.9824-165.9076,13.7298-129.5085,6.6431-272.0886-17.3257-425.269,89.3552,41.7291,167.794,89.1184,232.0606,143.8563,12.1087,141.1459-14.8895,292.2194-57.7525,447.3202Z" fill="#010101" stroke="#010101" stroke-miterlimit="10" stroke-width="13" stroke-linejoin="round"/>
  <path d="M2570.1682,2245.9306c-32.8964-52.027-70.1709-111.5294-117.4825-158.557-25.1373,160.5073-37.615,248.6876-103.2014,482.592,86.5058-89.0478,152.94-190.5416,220.6839-324.035Z" fill="#010101" stroke="#010101" stroke-miterlimit="10" stroke-width="13" stroke-linejoin="round"/>
  <path d="M1063.6005,2906.5967c-90.5149-27.2761-181.6226-64.747-270.9415-111.8913l78.6037-211.9493c130.5383-289.1495,574.6617-572.6844,683.5716-748.139,136.1019-213.7973,177.9271-410.5238,120.713-589.317,110.4391,158.6729,179.479,347.7101,71.5855,666.517-67.3747,269.4984-540.4006,575.4915-614.7934,802.8808l-68.7389,191.8989Z" fill="#010101" stroke="#010101" stroke-miterlimit="10" stroke-width="13" stroke-linejoin="round"/>
  <path d="M1511.6339,961.3437c188.102,222.17,69.7745,799.9764-481.6611,722.0779-212.4739-18.9819-412.8955,138.662-459.4963,266.6584-40.616,197.6116-165.2286,189.2501-232.2446,186.9973-39.4067-1.3247-211.6466-12.8386-319.2898-225.4269-7.2568-14.3317-11.3378-30.085-12.0608-46.133-1.2387-27.4933.6661-66.2454,3.8964-100.5413,3.704-39.3251,19.2269-76.5952,44.53-106.9257,88.6296-106.2392,315.1774-381.1536,346.2965-452.2829,37.8581-86.5327,43.1586-120.955,59.7175-202.0876,1.0667-5.2265,2.6259-10.3577,4.8838-15.1906,35.4124-75.7985,224.121-246.6078,393.9072-405.6893,31.4716-29.4874,58.6241-63.3932,79.4123-101.1796,54.8404-99.6825,65.0696-222.4505-70.463-471.7509,431.3942,107.1969,565.5228,303.5785,558.7788,542.2241,939.6865,263.7184,1099.3569,1057.6748,764.8408,2187.5681-115.3905,83.0942-305.0979,159.6278-328.1913,166.8627,26.8248-213.4097,507.1741-1682.2747-352.8564-1945.1805Z" fill="#010101" stroke="#010101" stroke-miterlimit="10" stroke-width="13" stroke-linejoin="round"/>
</svg>